<?xml version="1.0" encoding="utf-8"?>
<!-- Generator: Adobe Illustrator 25.0.1, SVG Export Plug-In . SVG Version: 6.00 Build 0)  -->
<svg version="1.1" id="Layer_1" xmlns="http://www.w3.org/2000/svg" xmlns:xlink="http://www.w3.org/1999/xlink" x="0px" y="0px"
	 viewBox="0 0 1000 1000" style="enable-background:new 0 0 1000 1000;" xml:space="preserve">
<style type="text/css">
	.st0{fill:#F1614B;}
</style>
<g>
	<path class="st0" d="M713.1,236c-4.6,0-9.3,0.4-14.1,1.3c-19.7,3.5-38.3,16.4-52.4,36.4c-14.1,20-22.2,45.4-22.2,69.7l0,17.6
		c19.3,6.2,38.1,9.9,56.1,9.9c4.2,0,9.7-0.5,14.1-1.3c42-7.5,76.1-45.9,74.6-84C768.1,256,745.5,236,713.1,236z"/>
	<path class="st0" d="M441.2,629.1c-4.6,0-9.3,0.4-14.1,1.3c-42,7.5-76.1,45.9-74.6,84c1.2,29.7,23.8,49.6,56.2,49.6h0
		c4.6,0,9.3-0.4,14.1-1.3c42-7.5,76.1-45.9,74.6-83.9C496.2,649.1,473.6,629.1,441.2,629.1z"/>
	<path class="st0" d="M859.8,282c-1.6-38.7-17.8-73.9-45.8-99.2c-26.7-24.1-62.5-37.4-100.9-37.4c-9.9,0-19.9,0.9-29.9,2.7
		c-31.2,5.5-60.4,20.6-84.6,43.4L535,128l-38.7,38.7c-13.8,13.8-24.7,32.8-32.9,53.2c-45.7-22.5-94.3-40.7-143.7-40.7
		c-33,0-62.9,6.4-88.8,18.9c-21.1,10.2-39.1,24.3-53.6,41.9c-33.6,40.7-37.2,86.2-37.2,103.9c0,42.3,16.8,80,46.4,106.6
		c-0.3,4.3-0.5,8.6-0.5,13c-0.5,70.8,42.2,132,103.4,158.5c-19.1,29.2-28.7,62.5-27.4,96.1c1.6,38.7,17.8,73.9,45.8,99.2
		c26.7,24.1,62.5,37.4,100.9,37.4h0c9.9,0,19.9-0.9,29.9-2.7c32-5.7,62.1-20,87-41.2l61.3,61.3l38.7-38.7
		c35.2-35.2,53.6-106.7,53.6-159l0-212.8c0.5,0,1,0,1.5,0c9.5,0,20.4-1,29.9-2.7c41-7.3,78.9-28.8,106.6-60.6
		C846.3,364.8,861.4,323.6,859.8,282z M775.9,362.3c-19.6,22.4-46.2,37.6-75,42.7c-6.4,1.1-14,1.8-20.4,1.8
		c-18.6,0-37.3-3.1-56.1-8.3l0,275.8c0,45.6-16.8,99.7-37.5,120.4l-25.4-25.4c11-11,27-53.5,27-95l0-288.1
		c-18.4-7.4-36.8-16.3-55.2-25.8l0,321h0c0,26.2-10.3,52.3-29.3,74.1c-19.6,22.4-46.2,37.6-75,42.7c-6.8,1.2-13.7,1.8-20.4,1.8h0
		c-24.8,0-47.6-8.3-64.2-23.3c-17-15.3-26.8-36.9-27.8-60.8c-1.1-27.5,9.3-55.2,29.2-78c19.6-22.4,46.2-37.6,75-42.7
		c6.8-1.2,13.7-1.8,20.4-1.8c21,0,40.6,6,56.2,16.9l0-269.2c-4.1-2.2-8.1-4.5-12.2-6.7c-59.9-33.2-116.5-64.5-165.6-64.5
		c-32.9,0-57.3,9.4-72.5,27.8c-15.3,18.5-16.5,40.1-16.5,46.2c0,28.9,18.3,42.5,30.3,48.3c6-9.8,13.2-18.9,21.6-27.1
		c26.6-26.2,61.9-40.6,99.4-40.6c26,0,54.9,11.1,56.1,11.6l-6.5,16.7l-6.5,16.7c-0.2-0.1-23.9-9.2-43.1-9.2
		c-57.7,0-104.9,46.5-105.4,103.7c-0.3,44.5,35.6,81,80.1,81.3c0.2,0,0.3,0,0.5,0c33.7,0,61.3-27.3,61.5-61.1
		c0.2-26.7-17.6-46.3-42.2-46.5c-0.1,0-0.2,0-0.2,0c-9.9,0-20.2,4.3-27.5,11.6c-6.3,6.2-9.7,13.9-9.7,21.7h-35.9
		c0-17.4,7.2-34.2,20.3-47.2c14.2-14.1,33.7-22.2,53.3-22c22,0.2,42,9,56.5,25c13.9,15.3,21.5,35.8,21.3,57.6
		c-0.4,53.5-44,96.7-97.4,96.7c-0.2,0-0.5,0-0.7,0c-64.3-0.5-116.2-53.2-115.8-117.4c0.1-13.3,2.1-26.3,5.7-38.8
		c-26.7-12.5-51.6-38.9-51.6-81.2c0-11.8,2.4-42.1,24.7-69.1c15.4-18.7,45.3-40.9,100.2-40.9c57.2,0,119.2,33.7,179.3,66.9
		c4.6-38.9,19-78.4,36-95.4l25.4,25.4c-10.5,10.5-25.5,49.5-26.9,89c18.4,9.9,36.8,19.4,55.1,27.4l0-3.8c0-32,10.2-64.1,28.8-90.4
		c19.6-27.8,46.4-45.9,75.4-51c6.8-1.2,13.7-1.8,20.4-1.8c24.8,0,47.6,8.3,64.2,23.3c17,15.3,26.8,36.9,27.8,60.8
		C806.2,311.7,795.9,339.4,775.9,362.3z"/>
</g>
</svg>
